<svg height="100pt" viewBox="0 0 512 512" width="100pt" xmlns="http://www.w3.org/2000/svg"><path d="m466 302h-420v-292h420zm0 0" fill="#f3eee9"/><path d="m256 10h210v292h-210zm0 0" fill="#e9dfda"/><path d="m331 512h-150v-45c0-30.328125 24.671875-55 55-55h40c30.328125 0 55 24.671875 55 55zm0 0" fill="#00eccf"/><path d="m512 512h-150v-45c0-30.328125 24.671875-55 55-55h40c30.328125 0 55 24.671875 55 55zm0 0" fill="#cf0050"/><path d="m150 512h-150v-45c0-30.328125 24.671875-55 55-55h40c30.328125 0 55 24.671875 55 55zm0 0" fill="#ffda2e"/><path d="m0 0h512v30h-512zm0 0" fill="#00429b"/><path d="m301 175h30v52h-30zm0 0" fill="#00429b"/><g fill="#005fdf"><path d="m121 175h30v52h-30zm0 0"/><path d="m241 75h30v152h-30zm0 0"/><path d="m181 115h30v112h-30zm0 0"/></g><path d="m361 145h30v82h-30zm0 0" fill="#00429b"/><path d="m256 75h15v152h-15zm0 0" fill="#00429b"/><path d="m256 0h256v30h-256zm0 0" fill="#002659"/><path d="m276 412h-20v100h75v-45c0-30.328125-24.671875-55-55-55zm0 0" fill="#00cab1"/><path d="m256 442c-30.328125 0-55-24.671875-55-55s24.671875-55 55-55 55 24.671875 55 55-24.671875 55-55 55zm0 0" fill="#ffdfcf"/><path d="m437 442c-30.328125 0-55-24.671875-55-55s24.671875-55 55-55 55 24.671875 55 55-24.671875 55-55 55zm0 0" fill="#ffcebf"/><path d="m75 442c-30.328125 0-55-24.671875-55-55s24.671875-55 55-55 55 24.671875 55 55-24.671875 55-55 55zm0 0" fill="#ffdfcf"/><path d="m311 387c0-30.328125-24.671875-55-55-55v110c30.328125 0 55-24.671875 55-55zm0 0" fill="#ffcebf"/></svg>
