<svg height="100pt" viewBox="0 0 512 512" width="100pt" xmlns="http://www.w3.org/2000/svg"><path d="m80 512c-8.835938 0-16-7.164062-16-16v-96h32v96c0 8.835938-7.164062 16-16 16zm0 0" fill="#77959e"/><path d="m256 512c-8.835938 0-16-7.164062-16-16v-320h32v320c0 8.835938-7.164062 16-16 16zm0 0" fill="#77959e"/><path d="m432 512c-8.835938 0-16-7.164062-16-16v-160h32v160c0 8.835938-7.164062 16-16 16zm0 0" fill="#77959e"/><path d="m48 320h64c26.507812 0 48 21.492188 48 48s-21.492188 48-48 48h-64c-26.507812 0-48-21.492188-48-48s21.492188-48 48-48zm0 0" fill="#48c8ef"/><path d="m224 128h64c26.507812 0 48 21.492188 48 48s-21.492188 48-48 48h-64c-26.507812 0-48-21.492188-48-48s21.492188-48 48-48zm0 0" fill="#48c8ef"/><path d="m400 256h64c26.507812 0 48 21.492188 48 48s-21.492188 48-48 48h-64c-26.507812 0-48-21.492188-48-48s21.492188-48 48-48zm0 0" fill="#48c8ef"/><g fill="#d7e1f2"><path d="m64 256h32v32h-32zm0 0"/><path d="m64 192h32v32h-32zm0 0"/><path d="m64 128h32v32h-32zm0 0"/><path d="m64 64h32v32h-32zm0 0"/><path d="m64 0h32v32h-32zm0 0"/><path d="m240 0h32v32h-32zm0 0"/><path d="m240 64h32v32h-32zm0 0"/><path d="m416 192h32v32h-32zm0 0"/><path d="m416 128h32v32h-32zm0 0"/><path d="m416 64h32v32h-32zm0 0"/><path d="m416 0h32v32h-32zm0 0"/></g></svg>
