<svg height="100pt" viewBox="0 -31 498.9 498" width="100pt" xmlns="http://www.w3.org/2000/svg"><path d="m417.027344 285.601562h-182.210938c-11.4375 0-20.707031-9.269531-20.707031-20.707031v-149.078125c0-11.4375 9.269531-20.707031 20.707031-20.707031h182.210938c11.433594 0 20.703125 9.269531 20.703125 20.707031v149.078125c0 11.4375-9.269531 20.707031-20.703125 20.707031zm0 0" fill="#f9a7a7"/><path d="m417.027344 289.601562h-182.210938c-13.625 0-24.707031-11.082031-24.707031-24.707031v-149.078125c0-13.625 11.082031-24.707031 24.707031-24.707031h182.210938c13.621094 0 24.703125 11.082031 24.703125 24.707031v149.078125c0 13.625-11.082031 24.707031-24.703125 24.707031zm-182.210938-190.488281c-9.210937 0-16.707031 7.492188-16.707031 16.703125v149.082032c0 9.210937 7.496094 16.707031 16.707031 16.707031h182.210938c9.207031 0 16.703125-7.496094 16.703125-16.707031v-149.082032c0-9.207031-7.492188-16.703125-16.703125-16.703125zm0 0" fill="#3762cc"/><path d="m322.953125 135.929688-82.761719 32.605468c-3.960937 1.558594-3.886718 7.203125.113282 8.65625l82.882812 30.160156c2.078125.757813 4.355469.757813 6.433594 0l82.90625-30.167968c3.992187-1.453125 4.066406-7.085938.113281-8.640625l-82.789063-32.613281c-2.21875-.871094-4.679687-.871094-6.898437 0zm0 0" fill="#4671c6"/><path d="m326.402344 211.917969c-1.550782 0-3.105469-.269531-4.585938-.804688l-82.878906-30.160156c-3.398438-1.238281-5.625-4.375-5.671875-7.996094-.050781-3.621093 2.097656-6.820312 5.460937-8.144531l82.761719-32.601562v-.003907c3.167969-1.242187 6.65625-1.246093 9.828125 0l82.789063 32.617188c3.363281 1.324219 5.503906 4.519531 5.457031 8.136719-.046875 3.613281-2.273438 6.75-5.667969 7.984374l-82.90625 30.167969c-1.480469.535157-3.035156.804688-4.585937.804688zm-1.980469-72.269531-82.765625 32.609374c-.121094.046876-.402344.15625-.394531.59375.003906.4375.289062.539063.410156.582032l82.878906 30.160156c1.191407.433594 2.507813.433594 3.699219 0l82.90625-30.167969c.121094-.042969.398438-.144531.402344-.574219.007812-.429687-.269532-.542968-.386719-.585937l-82.789063-32.617187c-1.277343-.5-2.683593-.5-3.960937 0zm0 0" fill="#3762cc"/><path d="m415.558594 223.640625v-50.949219c0-.003906 0-.003906 0-.003906.234375-2.351562-1.503906-4.277344-3.867188-4.277344h-81.121094c-2.230468 0-4.265624 1.609375-4.488281 3.828125-.257812 2.554688 1.742188 4.710938 4.246094 4.710938h74.625c1.144531 0 2.070313.925781 2.070313 2.070312v44.621094c-2.640626 1.496094-4.449219 4.296875-4.449219 7.546875v13.769531c0 1.175781.957031 2.128907 2.132812 2.128907h13.167969c1.175781 0 2.132812-.953126 2.132812-2.128907v-13.769531c0-3.25-1.804687-6.054688-4.449218-7.546875zm0 0" fill="#ffea92"/><path d="m329.617188 207.355469c-2.078126.753906-4.355469.753906-6.433594 0l-48.628906-17.699219v28.1875c0 1.8125 1.183593 3.425781 2.984374 4.027344 11.539063 3.863281 54.765626 16.140625 97.886719.035156 1.707031-.640625 2.820313-2.238281 2.820313-3.980469v-28.265625zm0 0" fill="#4671c6"/><path d="m328.5625 233.992188c-24.601562 0-44.554688-5.738282-52.289062-8.328126-3.417969-1.144531-5.714844-4.289062-5.714844-7.820312v-28.1875c0-1.300781.636718-2.527344 1.707031-3.277344 1.070313-.746094 2.441406-.921875 3.664063-.480468l48.625 17.695312c1.191406.433594 2.503906.433594 3.699218 0l48.628906-17.695312c1.222657-.441407 2.59375-.265626 3.660157.480468 1.070312.75 1.707031 1.972656 1.707031 3.277344v28.265625c0 3.410156-2.179688 6.519531-5.421875 7.730469-16.671875 6.222656-33.324219 8.339844-48.265625 8.339844zm-50.003906-38.621094v22.472656c0 .089844.101562.1875.253906.234375 11.800781 3.949219 53.554688 15.636719 95.214844.078125.160156-.054688.21875-.175781.21875-.234375v-22.550781l-43.261719 15.742187c-2.957031 1.074219-6.210937 1.074219-9.167969 0zm51.058594 11.984375h.019531zm0 0" fill="#3762cc"/><path d="m81.460938 306.941406v-43.019531c0-9.378906 6.574218-17.214844 15.363281-19.171875-19.539063 2.878906-34.554688 19.671875-34.554688 40.011719v40.621093h19.191407zm0 0" fill="#a4c9ff"/><path d="m173.617188 244.265625h-72.5c-10.855469 0-19.65625 8.800781-19.65625 19.65625v61.460937h111.808593v-61.460937c0-10.855469-8.800781-19.65625-19.652343-19.65625zm0 0" fill="#a4c9ff"/><path d="m183.371094 246.867188-.003906.003906c.039062.023437.074218.050781.113281.070312zm0 0" fill="#a4c9ff"/><path d="m273.707031 257.464844-31.898437-21.210938c-1.902344-1.265625-4.472656-.75-5.742188 1.15625l-18.023437 27.105469c-1.378907 2.074219-4.171875 2.632813-6.242188 1.257813l-26.421875-17.570313c4.78125 3.585937 7.890625 9.28125 7.890625 15.71875v45.472656l12.839844 8.539063c12.375 8.230468 29.082031 4.871094 37.316406-7.5l31.433594-47.226563c1.269531-1.90625.75-4.476562-1.152344-5.742187zm0 0" fill="#a4c9ff"/><path d="m111.6875 195.101562c-3.011719 0-5.457031-2.445312-5.457031-5.457031v-9.089843c0-3.011719 2.445312-5.453126 5.457031-5.453126s5.453125 2.441407 5.453125 5.453126v9.089843c0 3.015625-2.441406 5.457031-5.453125 5.457031zm0 0" fill="#4671c6"/><path d="m163.042969 195.101562c-3.011719 0-5.453125-2.445312-5.453125-5.457031v-9.089843c0-3.011719 2.441406-5.453126 5.453125-5.453126s5.453125 2.441407 5.453125 5.453126v9.089843c0 3.015625-2.441406 5.457031-5.453125 5.457031zm0 0" fill="#4671c6"/><path d="m140.234375 205.746094h-13.359375c-1.144531 0-2.070312.929687-2.070312 2.070312v5.175782c0 1.914062.820312 3.777343 2.328124 5.296874 1.808594 1.820313 4.464844 3 7.371094 3.332032v.109375h5.71875v-.109375c2.910156-.332032 5.566406-1.511719 7.375-3.332032 1.507813-1.523437 2.324219-3.382812 2.324219-5.296874v-5.175782c0-1.144531-.929687-2.070312-2.070313-2.070312zm0 0" fill="#f9a7a7"/><path d="m140.226562 224.230469h-5.71875c-.375 0-.726562-.082031-1.046874-.226563-3.210938-.515625-6.066407-1.902344-8.101563-3.957031-1.96875-1.984375-3.050781-4.492187-3.050781-7.054687v-5.175782c0-2.519531 2.050781-4.570312 4.570312-4.570312h20.976563c2.519531 0 4.570312 2.050781 4.570312 4.570312v5.175782c0 2.5625-1.082031 5.070312-3.050781 7.054687-2.050781 2.066406-4.929688 3.460937-8.164062 3.964844-.304688.140625-.636719.21875-.984376.21875zm-4.996093-5h4.285156c.136719-.042969.28125-.074219.425781-.09375 2.359375-.269531 4.503906-1.222657 5.882813-2.609375 1.046875-1.058594 1.601562-2.28125 1.601562-3.535156v-4.746094h-20.121093v4.746094c0 1.253906.554687 2.476562 1.605468 3.539062 1.375 1.382812 3.519532 2.335938 5.878906 2.609375.152344.015625.300782.046875.441407.089844zm12.621093-10.984375h.019532zm0 0" fill="#3762cc"/><path d="m120.503906 161.507812h-44.769531c-1.90625 0-3.453125-1.546874-3.453125-3.457031v-16.25c0-23.722656 19.230469-42.953125 42.953125-42.953125h25.886719c5.695312 0 10.308594 4.613282 10.308594 10.304688v21.425781c0 17.082031-13.84375 30.929687-30.925782 30.929687zm0 0" fill="#4671c6"/><path d="m193.269531 329.378906h-111.808593c-2.207032 0-4-1.789062-4-4v-61.457031c0-13.042969 10.609374-23.652344 23.65625-23.652344h72.5c13.039062 0 23.652343 10.609375 23.652343 23.652344v61.457031c0 2.210938-1.789062 4-4 4zm-107.808593-8h103.808593v-57.457031c0-8.628906-7.023437-15.652344-15.652343-15.652344h-72.5c-8.632813 0-15.65625 7.023438-15.65625 15.652344zm0 0" fill="#3762cc"/><path d="m193.269531 329.378906h-111.808593c-2.207032 0-4-1.789062-4-4v-61.457031c0-13.042969 10.609374-23.652344 23.65625-23.652344h72.5c13.039062 0 23.652343 10.609375 23.652343 23.652344v61.457031c0 2.210938-1.789062 4-4 4zm-107.808593-8h103.808593v-57.457031c0-8.628906-7.023437-15.652344-15.652343-15.652344h-72.5c-8.632813 0-15.65625 7.023438-15.65625 15.652344zm0 0" fill="#3762cc"/><path d="m220.96875 326.429688c-5.878906 0-11.820312-1.671876-17.074219-5.164063l-12.839843-8.539063c-1.113282-.742187-1.785157-1.992187-1.785157-3.332031v-45.472656c0-4.957031-2.292969-9.523437-6.289062-12.515625-1.730469-1.296875-2.117188-3.742188-.867188-5.511719 1.25-1.765625 3.679688-2.21875 5.480469-1.019531l26.421875 17.566406c.117187.078125.246094.105469.375.074219.136719-.03125.242187-.101563.316406-.214844l18.027344-27.105469c2.484375-3.742187 7.546875-4.757812 11.289063-2.273437l31.894531 21.207031h.003906c1.808594 1.207032 3.039063 3.042969 3.46875 5.175782.429687 2.132812 0 4.304687-1.203125 6.117187l-31.4375 47.226563c-5.941406 8.941406-15.773438 13.78125-25.78125 13.78125zm-23.699219-19.175782 11.054688 7.351563c10.523437 6.992187 24.773437 4.128906 31.769531-6.386719l31.4375-47.226562c.039062-.0625.023438-.152344-.042969-.199219l-31.894531-21.207031c-.066406-.042969-.15625-.023438-.199219.042968l-18.023437 27.101563c-1.253906 1.890625-3.175782 3.179687-5.402344 3.628906s-4.492188 0-6.382812-1.257813l-12.523438-8.324218c.136719 1.03125.207031 2.082031.207031 3.144531zm0 0" fill="#3762cc"/><path d="m183.480469 250.945312c-.703125 0-1.410157-.183593-2.054688-.570312-1.609375-.964844-2.445312-2.988281-1.851562-4.765625.394531-1.1875 1.320312-2.125 2.503906-2.523437 1.183594-.40625 2.484375-.234376 3.527344.460937l.113281.074219c1.796875 1.210937 2.304688 3.636718 1.140625 5.46875-.761719 1.195312-2.054687 1.855468-3.378906 1.855468zm0 0" fill="#3762cc"/><path d="m81.460938 329.378906h-19.191407c-2.207031 0-4-1.789062-4-4v-40.617187c0-21.878907 16.324219-40.78125 37.972657-43.96875 2.128906-.320313 4.125 1.113281 4.519531 3.230469.386719 2.113281-.964844 4.160156-3.066407 4.628906-7.089843 1.578125-12.234374 8-12.234374 15.269531v61.457031c0 2.210938-1.792969 4-4 4zm-15.191407-8h11.191407v-57.457031c0-2.097656.28125-4.144531.816406-6.109375-7.398438 6.734375-12.007813 16.421875-12.007813 26.949219zm0 0" fill="#3762cc"/><path d="m81.460938 306.941406v-43.019531c0-9.378906 6.574218-17.214844 15.363281-19.171875-19.539063 2.878906-34.554688 19.671875-34.554688 40.011719v40.621093h19.191407zm0 0" fill="#a4c9ff"/><path d="m173.617188 244.265625h-72.5c-10.855469 0-19.65625 8.800781-19.65625 19.65625v61.460937h111.808593v-61.460937c0-10.855469-8.800781-19.65625-19.652343-19.65625zm0 0" fill="#a4c9ff"/><path d="m183.371094 246.867188-.003906.003906c.039062.023437.074218.050781.113281.070312zm0 0" fill="#a4c9ff"/><path d="m273.707031 257.464844-31.898437-21.210938c-1.902344-1.265625-4.472656-.75-5.742188 1.15625l-18.023437 27.105469c-1.378907 2.074219-4.171875 2.632813-6.242188 1.257813l-26.421875-17.570313c4.78125 3.585937 7.890625 9.28125 7.890625 15.71875v45.472656l12.839844 8.539063c12.375 8.230468 29.082031 4.871094 37.316406-7.5l31.433594-47.226563c1.269531-1.90625.75-4.476562-1.152344-5.742187zm0 0" fill="#a4c9ff"/><path d="m185.023438 173.660156c-.101563 0-.203126.015625-.308594.019532v-4.597657c0-26.863281-21.777344-48.644531-48.644532-48.644531-26.863281 0-48.640624 21.777344-48.640624 48.644531v4.597657c-.105469-.003907-.207032-.019532-.308594-.019532-8.195313 0-14.839844 6.644532-14.839844 14.835938-.003906 3.671875 1.667969 7.113281 4.246094 9.71875 4.628906 4.683594 8.570312 5.425781 12.1875 5.039062 5.019531 21.519532 24.308594 37.554688 47.355468 37.554688 23.050782 0 42.339844-16.035156 47.359376-37.554688 3.691406.394532 7.734374-.386718 12.410156-5.347656 2.5-2.652344 4.097656-6.089844 4.019531-9.730469-.171875-8.046875-6.75-14.515625-14.835937-14.515625zm0 0" fill="#f9cfcf"/><path d="m136.074219 244.808594c-23.515625 0-43.808594-15.277344-50.429688-37.535156-4.296875-.378907-8.167969-2.410157-11.957031-6.246094-3.484375-3.523438-5.402344-7.976563-5.402344-12.535156 0-9.121094 6.523438-16.75 15.148438-18.46875v-.945313c0-29.027344 23.613281-52.640625 52.640625-52.640625 29.027343 0 52.640625 23.613281 52.640625 52.640625v.953125c8.445312 1.707031 14.953125 9.15625 15.144531 18.054688.097656 4.5-1.714844 8.957031-5.105469 12.558593-3.851562 4.085938-7.8125 6.242188-12.253906 6.628907-6.617188 22.261718-26.914062 37.535156-50.425781 37.535156zm-47.355469-45.554688c1.839844 0 3.464844 1.265625 3.890625 3.09375 4.734375 20.289063 22.605469 34.460938 43.460937 34.460938 20.859376 0 38.730469-14.171875 43.464844-34.460938.457032-1.96875 2.316406-3.289062 4.320313-3.070312 2.449219.265625 5.246093-.054688 9.074219-4.117188 1.941406-2.058594 2.980468-4.511718 2.929687-6.898437-.128906-5.824219-4.957031-10.566407-10.78125-10.601563-.148437.007813-.300781.015625-.367187.015625-1.046876 0-2.050782-.410156-2.800782-1.144531-.765625-.75-1.199218-1.78125-1.199218-2.855469v-4.597656c0-24.613281-20.027344-44.640625-44.640626-44.640625-24.613281 0-44.640624 20.027344-44.640624 44.640625v4.597656c0 1.074219-.433594 2.105469-1.199219 2.855469-.765625.753906-1.808594 1.199219-2.875 1.144531-.058594 0-.257813-.011719-.3125-.015625-5.898438 0-10.757813 4.863282-10.761719 10.835938 0 2.4375 1.097656 4.886718 3.09375 6.90625 3.789062 3.835937 6.53125 4.132812 8.917969 3.875.144531-.015625.28125-.023438.425781-.023438zm0 0" fill="#3762cc"/><path d="m111.6875 195.101562c-3.011719 0-5.457031-2.445312-5.457031-5.457031v-9.089843c0-3.011719 2.445312-5.453126 5.457031-5.453126s5.453125 2.441407 5.453125 5.453126v9.089843c0 3.015625-2.441406 5.457031-5.453125 5.457031zm0 0" fill="#4671c6"/><path d="m163.042969 195.101562c-3.011719 0-5.453125-2.445312-5.453125-5.457031v-9.089843c0-3.011719 2.441406-5.453126 5.453125-5.453126s5.453125 2.441407 5.453125 5.453126v9.089843c0 3.015625-2.441406 5.457031-5.453125 5.457031zm0 0" fill="#4671c6"/><path d="m192.855469 179.914062c-.734375 0-1.46875-.203124-2.117188-.609374-1.726562-1.074219-3.703125-1.644532-5.714843-1.644532l-.230469.015625c-1.027344.046875-2.113281-.390625-2.878907-1.144531-.765624-.75-1.199218-1.78125-1.199218-2.855469v-4.597656c0-2.285156-.183594-4.625-.546875-6.953125-.183594-1.15625.152343-2.332031.910156-3.21875.761719-.886719 1.871094-1.398438 3.042969-1.398438h8.738281c2.207031 0 4 1.789063 4 4v14.40625c0 1.453126-.792969 2.792969-2.0625 3.496094-.605469.335938-1.273437.503906-1.941406.503906zm-4.140625-9.882812c.046875.007812.09375.015625.140625.027344v-4.550782h-.265625c.085937 1.199219.125 2.390626.125 3.574219zm0 0" fill="#3762cc"/><path d="m79.289062 179.914062c-.667968 0-1.335937-.167968-1.9375-.503906-1.273437-.703125-2.0625-2.042968-2.0625-3.496094v-14.40625c0-2.210937 1.792969-4 4-4h8.738282c1.171875 0 2.28125.511719 3.039062 1.398438.761719.886719 1.09375 2.0625.914063 3.21875-.363281 2.328125-.546875 4.667969-.546875 6.953125v4.597656c0 1.074219-.433594 2.105469-1.203125 2.855469-.765625.753906-1.808594 1.199219-2.875 1.144531-.070313 0-.285157-.015625-.351563-.019531-1.890625.003906-3.871094.574219-5.597656 1.648438-.644531.40625-1.378906.609374-2.117188.609374zm4-14.40625v4.546876c.046876-.007813.09375-.019532.140626-.027344v-.949219c0-1.183594.042968-2.375.125-3.574219h-.265626zm0 0" fill="#3762cc"/><path d="m172.023438 161.507812h25.691406c1.902344 0 3.441406-1.542968 3.441406-3.441406v-19.652344c0-21.851562-17.714844-39.566406-39.566406-39.566406h-1.230469c-5.699219 0-10.320313 4.621094-10.320313 10.324219v30.351563c0 12.136718 9.84375 21.984374 21.984376 21.984374zm0 0" fill="#4671c6"/><path d="m120.503906 161.507812h-44.769531c-1.90625 0-3.453125-1.546874-3.453125-3.457031v-16.25c0-23.722656 19.230469-42.953125 42.953125-42.953125h25.886719c5.695312 0 10.308594 4.613282 10.308594 10.304688v21.425781c0 17.082031-13.84375 30.929687-30.925782 30.929687zm0 0" fill="#4671c6"/><g fill="#3762cc"><path d="m197.714844 165.507812h-25.691406c-14.328126 0-25.984376-11.65625-25.984376-25.984374v-30.355469c0-7.894531 6.425782-14.320313 14.320313-14.320313h1.230469c24.023437 0 43.5625 19.542969 43.5625 43.566406v19.648438c.003906 4.105469-3.335938 7.445312-7.4375 7.445312zm-37.355469-62.660156c-3.484375 0-6.320313 2.835938-6.320313 6.320313v30.355469c0 9.914062 8.066407 17.984374 17.984376 17.984374h25.128906v-19.09375c0-19.613281-15.953125-35.566406-35.5625-35.566406zm0 0"/><path d="m120.503906 165.507812h-44.765625c-4.113281 0-7.457031-3.347656-7.457031-7.457031v-16.253906c0-25.890625 21.0625-46.953125 46.953125-46.953125h25.886719c7.890625 0 14.308594 6.417969 14.308594 14.308594v21.421875c0 19.265625-15.667969 34.933593-34.925782 34.933593zm-44.222656-8h44.222656c14.847656 0 26.925782-12.082031 26.925782-26.929687v-21.425781c0-3.476563-2.828126-6.304688-6.308594-6.304688h-25.886719c-21.476563 0-38.953125 17.472656-38.953125 38.953125zm0 0"/><path d="m193.269531 329.378906h-111.808593c-2.207032 0-4-1.789062-4-4v-61.457031c0-13.042969 10.609374-23.652344 23.65625-23.652344h72.5c13.039062 0 23.652343 10.609375 23.652343 23.652344v61.457031c0 2.210938-1.789062 4-4 4zm-107.808593-8h103.808593v-57.457031c0-8.628906-7.023437-15.652344-15.652343-15.652344h-72.5c-8.632813 0-15.65625 7.023438-15.65625 15.652344zm0 0"/><path d="m193.269531 329.378906h-111.808593c-2.207032 0-4-1.789062-4-4v-61.457031c0-13.042969 10.609374-23.652344 23.65625-23.652344h72.5c13.039062 0 23.652343 10.609375 23.652343 23.652344v61.457031c0 2.210938-1.789062 4-4 4zm-107.808593-8h103.808593v-57.457031c0-8.628906-7.023437-15.652344-15.652343-15.652344h-72.5c-8.632813 0-15.65625 7.023438-15.65625 15.652344zm0 0"/><path d="m220.96875 326.429688c-5.878906 0-11.820312-1.671876-17.074219-5.164063l-12.839843-8.539063c-1.113282-.742187-1.785157-1.992187-1.785157-3.332031v-45.472656c0-4.957031-2.292969-9.523437-6.289062-12.515625-1.730469-1.296875-2.117188-3.742188-.867188-5.511719 1.25-1.765625 3.679688-2.21875 5.480469-1.019531l26.421875 17.566406c.117187.078125.246094.105469.375.074219.136719-.03125.242187-.101563.316406-.214844l18.027344-27.105469c2.484375-3.742187 7.546875-4.757812 11.289063-2.273437l31.894531 21.207031h.003906c1.808594 1.207032 3.039063 3.042969 3.46875 5.175782.429687 2.132812 0 4.304687-1.203125 6.117187l-31.4375 47.226563c-5.941406 8.941406-15.773438 13.78125-25.78125 13.78125zm-23.699219-19.175782 11.054688 7.351563c10.523437 6.992187 24.773437 4.128906 31.769531-6.386719l31.4375-47.226562c.039062-.0625.023438-.152344-.042969-.199219l-31.894531-21.207031c-.066406-.042969-.15625-.023438-.199219.042968l-18.023437 27.101563c-1.253906 1.890625-3.175782 3.179687-5.402344 3.628906s-4.492188 0-6.382812-1.257813l-12.523438-8.324218c.136719 1.03125.207031 2.082031.207031 3.144531zm0 0"/><path d="m183.480469 250.945312c-.703125 0-1.410157-.183593-2.054688-.570312-1.609375-.964844-2.445312-2.988281-1.851562-4.765625.394531-1.1875 1.320312-2.125 2.503906-2.523437 1.183594-.40625 2.484375-.234376 3.527344.460937l.113281.074219c1.796875 1.210937 2.304688 3.636718 1.140625 5.46875-.761719 1.195312-2.054687 1.855468-3.378906 1.855468zm0 0"/></g><path d="m136.074219 240.808594c-8.769531 0-16.984375-2.332032-24.089844-6.394532v19.957032c0 3.59375 2.4375 6.503906 5.441406 6.503906h37.300781c3.003907 0 5.4375-2.914062 5.4375-6.503906v-19.957032c-7.105468 4.0625-15.320312 6.394532-24.089843 6.394532zm0 0" fill="#f9cfcf"/><path d="m154.726562 264.875h-37.304687c-5.203125 0-9.4375-4.710938-9.4375-10.503906v-19.957032c0-1.425781.757813-2.742187 1.992187-3.457031 1.234376-.71875 2.753907-.722656 3.992188-.015625 6.710938 3.839844 14.351562 5.867188 22.101562 5.867188 7.753907 0 15.394532-2.03125 22.105469-5.867188 1.234375-.710937 2.757813-.707031 3.996094.011719 1.230469.714844 1.988281 2.035156 1.988281 3.457031v19.960938c0 5.792968-4.230468 10.503906-9.433594 10.503906zm-38.742187-24.054688v13.550782c0 1.503906.867187 2.503906 1.441406 2.503906h37.300781c.570313 0 1.4375-1 1.4375-2.503906v-13.550782c-12.6875 5.242188-27.484374 5.242188-40.179687 0zm0 0" fill="#3762cc"/><path d="m81.460938 329.378906h-19.191407c-2.207031 0-4-1.789062-4-4v-40.617187c0-21.878907 16.324219-40.78125 37.972657-43.96875 2.128906-.320313 4.125 1.113281 4.519531 3.230469.386719 2.113281-.964844 4.160156-3.066407 4.628906-7.089843 1.578125-12.234374 8-12.234374 15.269531v61.457031c0 2.210938-1.792969 4-4 4zm-15.191407-8h11.191407v-57.457031c0-2.097656.28125-4.144531.816406-6.109375-7.398438 6.734375-12.007813 16.421875-12.007813 26.949219zm0 0" fill="#3762cc"/><path d="m265.605469 253.480469-15.144531-10.191407c-5.949219-4.003906-7.527344-12.074218-3.523438-18.023437l13.292969-19.75c2.292969-3.40625 6.910156-4.308594 10.316406-2.015625l24.355469 16.390625c3.40625 2.292969 4.308594 6.914063 2.019531 10.320313l-13.292969 19.75c-4.003906 5.945312-12.074218 7.523437-18.023437 3.519531zm0 0" fill="#f9cfcf"/><path d="m272.820312 259.699219c-3.34375 0-6.613281-.992188-9.449218-2.898438l-15.144532-10.191406c-3.765624-2.535156-6.316406-6.382813-7.1875-10.835937-.867187-4.453126.046876-8.976563 2.582032-12.738282l13.289062-19.75c3.523438-5.234375 10.640625-6.621094 15.875-3.101562l24.351563 16.386718c2.539062 1.707032 4.253906 4.296876 4.839843 7.292969.585938 3-.03125 6.042969-1.738281 8.578125l-13.289062 19.75c-2.535157 3.765625-6.382813 6.316406-10.835938 7.1875-1.097656.214844-2.203125.320313-3.292969.320313zm-6.417968-53.464844c-1.105469 0-2.191406.53125-2.855469 1.515625l-13.289063 19.746094c-2.769531 4.113281-1.675781 9.710937 2.433594 12.472656l15.144532 10.191406c4.117187 2.769532 9.707031 1.675782 12.472656-2.433594l13.292968-19.75c1.054688-1.574218.636719-3.710937-.933593-4.769531l-24.355469-16.390625c-.585938-.390625-1.25-.582031-1.910156-.582031zm0 0" fill="#3762cc"/><path d="m265.492188 249.730469c-2.144532-1.273438-2.851563-4.042969-1.578126-6.191407l57.410157-96.714843c1.277343-2.140625 4.046875-2.851563 6.191406-1.578125 2.144531 1.277344 2.851563 4.046875 1.578125 6.191406l-57.410156 96.714844c-1.273438 2.144531-4.042969 2.851562-6.191406 1.578125zm0 0" fill="#e0ebfc"/><path d="m264.539062 212.863281 13.683594-1.582031 3.378906 29.203125c.136719 1.199219-.722656 2.28125-1.917968 2.417969-6.363282.734375-12.113282-3.824219-12.847656-10.183594zm0 0" fill="#f9cfcf"/><path d="m257.074219 250.070312c-.707031 0-1.425781-.1875-2.070313-.582031l-9.9375-6.03125c-.464844-.285156-.867187-.65625-1.183594-1.101562-4.078124-5.730469-4.183593-13.496094-.261718-19.324219l13.289062-19.75c3.519532-5.230469 10.632813-6.625 15.871094-3.101562l1.121094.753906c.25.167968.484375.367187.691406.589844l6.554688 7.027343c.582031.628907.953124 1.421875 1.046874 2.269531l3.375 29.207032c.394532 3.382812-2.039062 6.457031-5.429687 6.851562-5.699219.667969-11.015625-1.847656-14.238281-6.105468l-5.597656 7.65625c-.777344 1.066406-1.992188 1.640624-3.230469 1.640624zm-7.082031-12.980468 6.023437 3.65625 6.667969-9.125-.28125-2.414063c-.019532-.15625-.027344-.3125-.027344-.464843 0-2.003907 1.503906-3.730469 3.542969-3.964844 2.191406-.253906 4.179687 1.316406 4.433593 3.511718l.457032 3.972657c.410156 3.535156 3.203125 6.226562 6.585937 6.660156l-2.992187-25.875-5.347656-5.734375-.742188-.496094c-1.566406-1.054687-3.707031-.636718-4.761719.929688l-13.292969 19.753906c-1.933593 2.871094-2.015624 6.632812-.265624 9.589844zm0 0" fill="#3762cc"/><path d="m147.855469 205.746094h-20.980469c-1.144531 0-2.070312.929687-2.070312 2.070312v5.175782c0 1.914062.820312 3.773437 2.328124 5.296874 1.808594 1.820313 4.464844 3 7.371094 3.332032.113282-.0625 3.703125-.035156 5.808594-.015625 2.871094-.34375 5.492188-1.511719 7.285156-3.316407 1.507813-1.523437 2.324219-3.382812 2.324219-5.296874v-5.175782c.003906-1.144531-.925781-2.070312-2.066406-2.070312zm0 0" fill="#f9a7a7"/><path d="m134.503906 223.621094c-.074218 0-.152344-.003906-.226562-.011719-3.410156-.390625-6.453125-1.785156-8.5625-3.914063-1.875-1.886718-2.910156-4.269531-2.910156-6.707031v-5.175781c0-2.242188 1.828124-4.070312 4.070312-4.070312h20.976562c2.246094 0 4.074219 1.828124 4.074219 4.070312v5.175781c0 2.4375-1.035156 4.816407-2.910156 6.707031-2.089844 2.105469-5.09375 3.488282-8.464844 3.894532-.082031.011718-.144531.003906-.257812.015625-4.125-.042969-5.207031-.019531-5.484375-.007813-.101563.019532-.203125.023438-.304688.023438zm-7.628906-15.875-.070312 5.246094c0 1.390624.605468 2.734374 1.75 3.886718 1.414062 1.429688 3.585937 2.417969 5.980468 2.730469.769532-.050781 2.277344-.039063 5.664063-.007813 2.390625-.308593 4.566406-1.300781 5.976562-2.722656 1.144531-1.152344 1.75-2.496094 1.75-3.886718l-.074219-5.246094zm0 0" fill="#3762cc"/><path d="m303.867188 356.324219c0 8.253906-6.691407 14.941406-14.941407 14.941406-8.253906 0-14.945312-6.6875-14.945312-14.941406 0-8.253907 6.691406-14.941407 14.945312-14.941407 8.25 0 14.941407 6.6875 14.941407 14.941407zm0 0" fill="#f9a7a7"/><path d="m355.824219 347.21875c0-7.066406-4.667969-15.320312-17.828125-15.320312h-13.429688c-2.210937 0-4 1.792968-4 4v41.046874c0 2.210938 1.789063 4 4 4h2.71875c2.210938 0 4-1.789062 4-4v-12.308593c0-1.121094.910156-2.03125 2.03125-2.03125h.007813c.726562 0 1.398437.386719 1.765625 1.019531l8.8125 15.316406c.714844 1.238282 2.035156 2.003906 3.464844 2.003906h3.355468c3.105469 0 5.027344-3.386718 3.433594-6.050781l-5.949219-9.964843c-1.113281-1.867188-.488281-4.210938 1.3125-5.4375 4.554688-3.097657 6.304688-8.011719 6.304688-12.273438zm-24.539063-1.984375c0-2.210937 1.789063-4 4-4h2.710938c4.652344 0 6.910156 1.957031 6.910156 5.984375 0 4.105469-2.324219 6.183594-6.910156 6.183594h-2.710938c-2.210937 0-4-1.789063-4-4zm0 0" fill="#f9cfcf"/><path d="m366.253906 380.945312h20.53125c2.210938 0 4-1.789062 4-4v-1.332031c0-2.210937-1.789062-4-4-4h-9.808594c-2.210937 0-4-1.792969-4-4v-2.851562c0-2.210938 1.789063-4 4-4h7.832032c2.210937 0 4-1.792969 4-4v-1.335938c0-2.210937-1.789063-4-4-4h-7.832032c-2.210937 0-4-1.789062-4-4v-2.257812c0-2.210938 1.789063-4 4-4h9.808594c2.210938 0 4-1.789063 4-4v-1.332031c0-2.210938-1.789062-4-4-4h-20.53125c-2.210937 0-4 1.789062-4 4v41.109374c0 2.210938 1.792969 4 4 4zm0 0" fill="#f9cfcf"/><path d="m430.171875 365.304688c-2.09375 4.183593-5.742187 6.308593-10.839844 6.308593-8.433593 0-14.101562-6.144531-14.101562-15.289062 0-9.105469 5.667969-15.222657 14.101562-15.222657 5.097657 0 8.746094 2.121094 10.839844 6.304688l.441406.886719h12.367188l-.851563-2.183594c-5.414062-13.898437-21.863281-19.402344-40.019531-10.445313-.652344.320313-1.21875.828126-1.613281 1.4375-14.570313 22.597657-1.394532 44.238282 18.835937 44.238282 10.679688 0 19.203125-5.511719 22.796875-14.738282l.847656-2.183593h-12.367187zm0 0" fill="#f9cfcf"/><path d="m14 204.449219c-5.523438 0-10-4.476563-10-10v-156c0-18.746094 15.253906-34 34-34h191.441406c5.523438 0 10 4.476562 10 10 0 5.523437-4.476562 10-10 10h-191.441406c-7.71875 0-14 6.28125-14 14v156c0 5.523437-4.476562 10-10 10zm0 0" fill="#6bdddd"/><path d="m460.898438 432.042969h-191.4375c-5.523438 0-10-4.476563-10-10 0-5.523438 4.476562-10 10-10h191.4375c7.71875 0 14-6.28125 14-14v-156c0-5.523438 4.476562-10 10-10 5.527343 0 10 4.476562 10 10v156c0 18.746093-15.25 34-34 34zm0 0" fill="#6bdddd"/><path d="m14 208.449219c-7.71875 0-14-6.28125-14-14v-156c0-20.953125 17.046875-38 38-38h191.441406c7.714844 0 14 6.28125 14 14s-6.285156 14-14 14h-191.441406c-5.515625 0-10 4.488281-10 10v156c0 7.71875-6.28125 14-14 14zm24-200c-16.542969 0-30 13.457031-30 30v156c0 3.308593 2.691406 6 6 6s6-2.691407 6-6v-156c0-9.925781 8.074219-18 18-18h191.441406c3.304688 0 6-2.691407 6-6 0-3.308594-2.695312-6-6-6zm0 0" fill="#3762cc"/><path d="m460.898438 436.042969h-191.4375c-7.71875 0-14-6.28125-14-14s6.28125-14 14-14h191.4375c5.515624 0 10-4.488281 10-10v-156c0-7.71875 6.285156-14 14-14 7.71875 0 14 6.28125 14 14v156c0 20.953125-17.046876 38-38 38zm-191.4375-20c-3.308594 0-6 2.691406-6 6 0 3.308593 2.691406 6 6 6h191.4375c16.542968 0 30-13.457031 30-30v-156c0-3.308594-2.691407-6-6-6-3.304688 0-6 2.691406-6 6v156c0 9.925781-8.074219 18-18 18zm0 0" fill="#3762cc"/></svg>
