<svg height="100pt" viewBox="0 0 480 480" width="100pt" xmlns="http://www.w3.org/2000/svg" xmlns:xlink="http://www.w3.org/1999/xlink"><linearGradient id="a"><stop offset="0" stop-color="#e93e3a"/><stop offset=".35" stop-color="#ed683c"/><stop offset=".7" stop-color="#f3903f"/><stop offset="1" stop-color="#fdc70c"/></linearGradient><linearGradient id="b" gradientUnits="userSpaceOnUse" x1="308" x2="308" xlink:href="#a" y1="493.592" y2="-13.024"/><linearGradient id="c" gradientUnits="userSpaceOnUse" x1="344" x2="344" xlink:href="#a" y1="493.592" y2="-13.024"/><linearGradient id="d" gradientUnits="userSpaceOnUse" x1="252" x2="252" xlink:href="#a" y1="493.592" y2="-13.024"/><linearGradient id="e" gradientUnits="userSpaceOnUse" x1="304" x2="304" xlink:href="#a" y1="493.592" y2="-13.024"/><linearGradient id="f" gradientUnits="userSpaceOnUse" x1="264" x2="264" xlink:href="#a" y1="493.592" y2="-13.024"/><linearGradient id="g" gradientUnits="userSpaceOnUse" x1="296" x2="296" xlink:href="#a" y1="493.592" y2="-13.024"/><linearGradient id="h" gradientUnits="userSpaceOnUse" x1="376" x2="376" xlink:href="#a" y1="493.592" y2="-13.024"/><linearGradient id="i" gradientUnits="userSpaceOnUse" x1="328" x2="328" xlink:href="#a" y1="493.592" y2="-13.024"/><linearGradient id="j" gradientUnits="userSpaceOnUse" x1="116" x2="116" xlink:href="#a" y1="493.592" y2="-13.024"/><linearGradient id="k" gradientUnits="userSpaceOnUse" x1="248" x2="248" xlink:href="#a" y1="493.592" y2="-13.024"/><linearGradient id="l" gradientUnits="userSpaceOnUse" x1="280" x2="280" xlink:href="#a" y1="493.592" y2="-13.024"/><linearGradient id="m" gradientUnits="userSpaceOnUse" x1="312" x2="312" xlink:href="#a" y1="493.592" y2="-13.024"/><linearGradient id="n" gradientUnits="userSpaceOnUse" x1="40" x2="40" xlink:href="#a" y1="493.592" y2="-13.024"/><linearGradient id="o" gradientUnits="userSpaceOnUse" x1="8" x2="8" xlink:href="#a" y1="493.592" y2="-13.024"/><linearGradient id="p" gradientUnits="userSpaceOnUse" x1="80" x2="80" xlink:href="#a" y1="493.592" y2="-13.024"/><linearGradient id="q" gradientUnits="userSpaceOnUse" x1="32" x2="32" xlink:href="#a" y1="493.592" y2="-13.024"/><linearGradient id="r" gradientUnits="userSpaceOnUse" x1="120" x2="120" xlink:href="#a" y1="493.592" y2="-13.024"/><path d="m344 272c-5.695312.027344-11.277344 1.59375-16.152344 4.535156l-46.511718-46.511718c2.839843-4.253907 4.832031-9.015626 5.863281-14.023438h57.945312c4.027344 15.601562 19.03125 25.777344 35.015625 23.746094s27.96875-15.632813 27.96875-31.746094-11.984375-29.714844-27.96875-31.746094-30.988281 8.144532-35.015625 23.746094h-57.945312c-1.03125-5.007812-3.019531-9.769531-5.855469-14.023438l46.511719-46.511718c4.875 2.9375 10.453125 4.503906 16.144531 4.535156 17.671875 0 32-14.328125 32-32s-14.328125-32-32-32-32 14.328125-32 32c.027344 5.695312 1.59375 11.277344 4.535156 16.152344l-46.511718 46.511718c-16.699219-11.074218-39.015626-8.082031-52.210938 6.996094-13.195312 15.082032-13.195312 37.597656 0 52.679688 13.195312 15.078125 35.511719 18.070312 52.210938 6.996094l46.511718 46.511718c-2.941406 4.875-4.507812 10.457032-4.535156 16.152344 0 17.671875 14.328125 32 32 32s32-14.328125 32-32-14.328125-32-32-32zm32-80c8.835938 0 16 7.164062 16 16s-7.164062 16-16 16-16-7.164062-16-16 7.164062-16 16-16zm-32-96c8.835938 0 16 7.164062 16 16s-7.164062 16-16 16-16-7.164062-16-16 7.164062-16 16-16zm-96 136c-13.253906 0-24-10.746094-24-24s10.746094-24 24-24 24 10.746094 24 24-10.746094 24-24 24zm96 88c-8.835938 0-16-7.164062-16-16s7.164062-16 16-16 16 7.164062 16 16-7.164062 16-16 16zm0 0" fill="url(#b)"/><path d="m456 0h-224c-13.253906 0-24 10.746094-24 24v136h16v-96h240v216c0 4.417969-3.582031 8-8 8h-64v16h64c13.253906 0 24-10.746094 24-24v-256c0-13.253906-10.746094-24-24-24zm-232 48v-24c0-4.417969 3.582031-8 8-8h224c4.417969 0 8 3.582031 8 8v24zm0 0" fill="url(#c)"/><path d="m232 304h64v-16h-64c-4.417969 0-8-3.582031-8-8v-24h-16v24c0 13.253906 10.746094 24 24 24zm0 0" fill="url(#d)"/><path d="m336 392h-80v16h88c4.417969 0 8-3.582031 8-8v-48h-16zm0 0" fill="url(#e)"/><path d="m256 424h16v16h-16zm0 0" fill="url(#f)"/><path d="m288 424h16v16h-16zm0 0" fill="url(#g)"/><path d="m368 352h16v16h-16zm0 0" fill="url(#h)"/><path d="m368 384h16v16h-16zm0 0" fill="url(#h)"/><path d="m320 424h16v16h-16zm0 0" fill="url(#i)"/><path d="m64 80v16h76.6875l-10.34375 10.34375 11.3125 11.3125 24-24c3.121094-3.125 3.121094-8.1875 0-11.3125l-24-24-11.3125 11.3125 10.34375 10.34375zm0 0" fill="url(#j)"/><path d="m240 24h16v16h-16zm0 0" fill="url(#k)"/><path d="m272 24h16v16h-16zm0 0" fill="url(#l)"/><path d="m304 24h16v16h-16zm0 0" fill="url(#m)"/><path d="m32 80h16v16h-16zm0 0" fill="url(#n)"/><path d="m0 80h16v16h-16zm0 0" fill="url(#o)"/><path d="m56 32h48v16h-48zm0 0" fill="url(#p)"/><path d="m24 32h16v16h-16zm0 0" fill="url(#q)"/><path d="m198.742188 334.601562-46.742188-12.714843v-12c15.027344-10.445313 23.988281-27.585938 24-45.886719v-8c4.417969 0 8-3.582031 8-8v-24c-.039062-35.328125-28.671875-63.960938-64-64h-72c-8.835938 0-16 7.164062-16 16v40c-.050781 18.1875 12.226562 34.101562 29.832031 38.664062.710938.199219 1.449219.289063 2.167969.441407v8.894531c.011719 18.300781 8.976562 35.4375 24 45.886719v12l-46.769531 12.722656c-24.300781 6.726563-41.1562502 28.8125-41.230469 54.03125v83.359375c0 4.417969 3.582031 8 8 8h224c4.417969 0 8-3.582031 8-8v-83.359375c-.078125-25.226563-16.941406-47.316406-41.257812-54.039063zm-150.742188-118.601562v-40h72c26.5.027344 47.972656 21.5 48 48v16h-5.28125c-7.324219-.015625-13.710938-4.988281-15.519531-12.089844l-3.429688-13.839844c-.746093-3-3.15625-5.300781-6.183593-5.910156-.523438-.109375-1.054688-.164062-1.585938-.160156-2.519531 0-4.890625 1.1875-6.398438 3.199219l-4.800781 6.402343c-2.867187 3.761719-6.175781 7.164063-9.855469 10.132813-9.914062 7.945313-22.242187 12.269531-34.945312 12.265625h-8c-2.039062.019531-4.070312-.25-6.03125-.800781-10.59375-2.710938-17.992188-12.265625-17.96875-23.199219zm32 48v-8c16.378906-.003906 32.265625-5.597656 45.03125-15.855469 2.519531-2.039062 4.90625-4.238281 7.144531-6.585937 3.917969 12.359375 14.90625 21.132812 27.824219 22.21875v8.222656c0 22.089844-17.910156 40-40 40s-40-17.910156-40-40zm40 56c5.421875-.015625 10.8125-.824219 16-2.398438v10.398438c.027344 2.292969 1.042969 4.460938 2.792969 5.945312l-18.792969 15.65625-18.792969-15.648437c1.75-1.484375 2.769531-3.65625 2.792969-5.953125v-10.398438c5.1875 1.574219 10.578125 2.382813 16 2.398438zm104 144h-24v-72h-16v72h-128v-72h-16v72h-24v-75.359375c.058594-18.015625 12.101562-33.792969 29.464844-38.601563l37.734375-10.261718 31.679687 26.398437c2.96875 2.472657 7.273438 2.472657 10.242188 0l31.679687-26.398437 37.710938 10.253906c17.371093 4.804688 29.421875 20.585938 29.488281 38.609375zm0 0" fill="url(#r)"/></svg>
